<svg id="Layer_1" data-name="Layer 1" xmlns="http://www.w3.org/2000/svg" viewBox="0 0 761.29 119.17"><defs><style>.cls-1,.cls-2{fill:#8f2a46;}.cls-2{fill-rule:evenodd;}.cls-3{fill:#898989;}.cls-4{fill:#5b5b5b;}</style></defs><path class="cls-1" d="M75.79,32.08h-48v68H19.47V23.74H75.79ZM46,110.65H73c7.29,0,12.2-1.24,14.67-3.73s3.73-7.2,3.73-14.16V68.22q0-11-3.69-14.73T73,49.77H46ZM81.64,84h-26V76.45h26Zm0-16.83h-26V59.62h26Zm0,33.65h-26V93.28h26Zm-44,17.38V42.25H74.32c9.53,0,16.19,1.88,20,5.66s5.76,10.34,5.76,19.7v25q0,14.13-5.8,19.82t-20,5.7ZM57.32,13.45h-48v68H1V5.12H57.32Z"/><path class="cls-2" d="M604.87,1a17,17,0,1,1-17,17,17.06,17.06,0,0,1,17-17m-.68,17V33.67a15.66,15.66,0,0,1,0-31.29Zm.95,15.66c5-2,8.58-7.37,8.58-15.66s-3.61-13.63-8.58-15.65a15.66,15.66,0,0,1,0,31.31Z"/><path class="cls-3" d="M565,35.52V22.31L558.13,4.82h3.27l5.26,14,5.13-14H575l-6.79,17.49V35.52Zm-25,0V7.45h-6.15V4.82H549.3V7.45h-6.16V35.52Zm-21.44,0V4.82h3.14v30.7Zm-28.67-8.15h3a7.73,7.73,0,0,0,1.36,4.46,4.32,4.32,0,0,0,3.53,1.44A4.14,4.14,0,0,0,501,31.88a5.34,5.34,0,0,0,1.25-3.69,6.26,6.26,0,0,0-1.16-3.69,22.07,22.07,0,0,0-4.77-4.34,19.32,19.32,0,0,1-4.8-4.59,8.35,8.35,0,0,1-1.16-4.44,6.71,6.71,0,0,1,1.94-4.92,6.48,6.48,0,0,1,4.86-2,6.93,6.93,0,0,1,5.41,2.18,9.35,9.35,0,0,1,2.1,6.14h-2.89a7.78,7.78,0,0,0-1.33-4.26,3.76,3.76,0,0,0-3.16-1.43,4,4,0,0,0-3,1.16,4.33,4.33,0,0,0-1.12,3.11,5,5,0,0,0,.4,1.94,5.57,5.57,0,0,0,1.09,1.69,26.45,26.45,0,0,0,3.13,2.64c1.38,1,2.25,1.69,2.61,2a14.85,14.85,0,0,1,3.71,4.11,9.31,9.31,0,0,1,1.12,4.56,8.24,8.24,0,0,1-2.07,5.86A8.07,8.07,0,0,1,492,33.83,9.63,9.63,0,0,1,489.93,27.37Zm-27.51,8.15V4.82H468q5,0,7.45,2t2.46,6.06a8.39,8.39,0,0,1-1.25,4.71,6.61,6.61,0,0,1-3.6,2.64l5,15.29h-3.4l-4.63-14.61-2,.07-1.31,0h-1.23V35.52Zm3.14-17.28h2.68A7.22,7.22,0,0,0,473,16.9a5,5,0,0,0,1.58-4,5,5,0,0,0-1.56-4,7.21,7.21,0,0,0-4.76-1.33h-2.68ZM435.84,35.52V4.82h13.79V7.67H439V18.24h7.81V21H439V32.67h11v2.85Zm-21.84,0-7-30.7h3.15l4.59,20.93c.15.64.37,2,.64,4,.06.37.1.65.13.82.16-1,.32-1.88.47-2.66s.31-1.53.46-2.25L421,4.82h3l-7,30.7Zm-22.13,0V4.82H395v30.7ZM366.53,14.3c-.43-1.16-.83-2.32-1.22-3.5s-.76-2.38-1.12-3.59V35.52h-2.76V4.82H366l6.34,17.41c.48,1.39.93,2.71,1.34,4s.79,2.49,1.14,3.68q-.12-1.36-.18-2.82c-.05-1-.07-2.26-.07-3.9V4.82h2.76v30.7h-3.09ZM331.61,24.78v-20h3.14V24.49c0,3.7.33,6.09,1,7.19s1.86,1.63,3.6,1.63a3.8,3.8,0,0,0,3.55-1.67q1-1.66,1-7.15V4.82H347v20a33,33,0,0,1-.36,5.82,7,7,0,0,1-1.23,2.92,6.55,6.55,0,0,1-2.57,1.92,8.86,8.86,0,0,1-3.51.67,9,9,0,0,1-3.56-.67,6.31,6.31,0,0,1-2.56-1.92A6.54,6.54,0,0,1,332,30.69,33.06,33.06,0,0,1,331.61,24.78ZM301.39,35.52V7.45h-6.16V4.82h15.42V7.45h-6.16V35.52ZM269,27.37h3a7.73,7.73,0,0,0,1.36,4.46,4.31,4.31,0,0,0,3.53,1.44,4.14,4.14,0,0,0,3.25-1.39,5.34,5.34,0,0,0,1.25-3.69,6.33,6.33,0,0,0-1.16-3.69,22.07,22.07,0,0,0-4.77-4.34,19.32,19.32,0,0,1-4.8-4.59,8.35,8.35,0,0,1-1.16-4.44,6.71,6.71,0,0,1,1.94-4.92,6.48,6.48,0,0,1,4.86-2,6.93,6.93,0,0,1,5.41,2.18,9.35,9.35,0,0,1,2.1,6.14h-2.89a7.78,7.78,0,0,0-1.33-4.26,3.76,3.76,0,0,0-3.16-1.43,4,4,0,0,0-3,1.16,4.33,4.33,0,0,0-1.12,3.11,4.85,4.85,0,0,0,.4,1.94,5.57,5.57,0,0,0,1.09,1.69,27,27,0,0,0,3.12,2.64c1.39,1,2.26,1.69,2.62,2a14.85,14.85,0,0,1,3.71,4.11,9.31,9.31,0,0,1,1.12,4.56,8.24,8.24,0,0,1-2.07,5.86,8.07,8.07,0,0,1-11.16-.08A9.57,9.57,0,0,1,269,27.37Zm-28.54,8.15,6.66-30.7h4.33l6.72,30.7h-3.32l-1.78-9h-7.73l-1.78,9Zm5.56-11.93h6.41L249.24,7.53ZM216.12,35.52V4.82h13.8V7.67H219.26V18.24h7.81V21h-7.81V32.67h11v2.85Zm-37.74,0V4.82H184q5,0,7.45,2t2.46,6.06a8.39,8.39,0,0,1-1.25,4.71,6.61,6.61,0,0,1-3.6,2.64l5,15.29h-3.4L186,20.91l-2,.07-1.31,0h-1.22V35.52Zm3.14-17.28h2.68a7.22,7.22,0,0,0,4.74-1.34,5,5,0,0,0,1.58-4,5,5,0,0,0-1.56-4,7.21,7.21,0,0,0-4.76-1.33h-2.68ZM148.61,35.52l6.65-30.7h4.34l6.72,30.7H163l-1.79-9h-7.72l-1.79,9Zm5.55-11.93h6.42L157.36,7.53ZM124.23,35.52V4.82H138V7.67H127.38V18.24h7.81V21h-7.81V32.67h11v2.85ZM99,14.3c-.43-1.16-.84-2.32-1.23-3.5S97,8.42,96.64,7.21V35.52H93.88V4.82h4.58l6.34,17.41c.48,1.39.94,2.71,1.35,4s.79,2.49,1.14,3.68c-.09-.91-.15-1.85-.19-2.82s-.06-2.26-.06-3.9V4.82h2.76v30.7h-3.09Z"/><path class="cls-4" d="M738.38,104.66V57.23H759.7v4.39H743.23V78H755.3v4.33H743.23v18h17.06v4.4Zm-19.21,0V61.29h-9.52V57.23h23.82v4.06H724v43.37ZM681,88.06V57.23h4.85V87.61q0,8.58,1.52,11.11c1,1.68,2.88,2.53,5.57,2.53s4.45-.87,5.48-2.58S700,93.26,700,87.61V57.23h4.85V88.06a51.23,51.23,0,0,1-.55,9,11,11,0,0,1-1.92,4.51,10.1,10.1,0,0,1-4,3,13.75,13.75,0,0,1-5.42,1,14,14,0,0,1-5.49-1,9.78,9.78,0,0,1-4-3,10.05,10.05,0,0,1-1.94-4.37A50.25,50.25,0,0,1,681,88.06ZM662,104.66V61.29h-9.51V57.23h23.81v4.06h-9.51v43.37Zm-19.42,0V57.23h4.85v47.43Zm-19.34,0V61.29h-9.52V57.23H637.5v4.06H628v43.37Zm-36.28-12.6h4.59c.17,3.11.87,5.4,2.1,6.89a6.63,6.63,0,0,0,5.45,2.23,6.41,6.41,0,0,0,5-2.14A8.26,8.26,0,0,0,606,93.33a9.79,9.79,0,0,0-1.78-5.7q-1.8-2.56-7.39-6.71c-3.73-2.78-6.21-5.14-7.41-7.09A12.86,12.86,0,0,1,587.64,67a10.4,10.4,0,0,1,3-7.61,10.08,10.08,0,0,1,7.52-3.06,10.66,10.66,0,0,1,8.36,3.38c2,2.26,3.11,5.41,3.24,9.48h-4.46a12.09,12.09,0,0,0-2.06-6.59,5.84,5.84,0,0,0-4.88-2.21,6.19,6.19,0,0,0-4.65,1.8A6.66,6.66,0,0,0,592,67a7.76,7.76,0,0,0,.61,3,8.57,8.57,0,0,0,1.7,2.62,40.45,40.45,0,0,0,4.82,4.07q3.21,2.4,4,3.07a22.8,22.8,0,0,1,5.73,6.34,14.33,14.33,0,0,1,1.73,7.05,12.69,12.69,0,0,1-3.2,9,11.08,11.08,0,0,1-8.47,3.42q-5.64,0-8.78-3.52T586.92,92.06Zm-23.4-20.19c-.67-1.79-1.29-3.58-1.89-5.41s-1.17-3.67-1.73-5.55v43.75h-4.27V57.23h7.09l9.8,26.89c.74,2.15,1.44,4.19,2.07,6.14s1.23,3.85,1.76,5.68c-.13-1.41-.21-2.85-.28-4.35s-.1-3.5-.1-6V57.23h4.27v47.43h-4.78ZM542,104.66V57.23h4.85v47.43Zm-46,0V57.23h4.85V77.56h13.78V57.23h4.85v47.43h-4.85V82.09H500.81v22.57Zm-6.23-15.55v1q0,7.39-3.23,11.41t-9.17,4a10.81,10.81,0,0,1-10-6c-2.24-4-3.37-10-3.37-18q0-13,3.31-19.14a11,11,0,0,1,10.28-6.17,10.38,10.38,0,0,1,8.6,4q3.12,4,3.13,10.92h-4.72q-.26-5.19-2.07-7.91a5.7,5.7,0,0,0-5-2.71c-3,0-5.15,1.6-6.48,4.82s-2,8.47-2,15.78q0,10.73,2.18,15.42c1.45,3.14,3.8,4.72,7.05,4.72a5.89,5.89,0,0,0,5.22-3c1.25-2,1.89-4.71,1.89-8.21v-1Zm-54.9,15.55V57.23h8.64c5.14,0,9,1,11.51,3.09s3.8,5.17,3.8,9.36A13,13,0,0,1,456.85,77,10.14,10.14,0,0,1,451.29,81L459,104.66h-5.25l-7.15-22.57-3,.1-2,0h-1.89v22.44ZM439.69,78h4.13q4.88,0,7.33-2.07c1.63-1.38,2.45-3.44,2.45-6.2s-.81-4.84-2.42-6.21-4.07-2.06-7.36-2.06h-4.13Zm-37.13,26.7,10.27-47.43h6.71l10.37,47.43h-5.13l-2.75-14H410.09l-2.76,14Zm8.58-18.44H421l-5-24.81Zm-32.53,18.44V57.23h21.32v4.39H383.46V78h12.08v4.33H383.46v18h17.06v4.4Zm-30.44-12.6h4.59c.18,3.11.88,5.4,2.1,6.89a6.65,6.65,0,0,0,5.46,2.23,6.42,6.42,0,0,0,5-2.14,8.3,8.3,0,0,0,1.92-5.71,9.79,9.79,0,0,0-1.78-5.7q-1.78-2.56-7.38-6.71t-7.42-7.09A12.86,12.86,0,0,1,348.89,67a10.41,10.41,0,0,1,3-7.61,10,10,0,0,1,7.51-3.06,10.66,10.66,0,0,1,8.36,3.38c2,2.26,3.11,5.41,3.24,9.48h-4.46a12.09,12.09,0,0,0-2.06-6.59,5.83,5.83,0,0,0-4.87-2.21,6.21,6.21,0,0,0-4.66,1.8A6.66,6.66,0,0,0,353.22,67a7.76,7.76,0,0,0,.61,3,8.76,8.76,0,0,0,1.7,2.62,41.29,41.29,0,0,0,4.82,4.07q3.21,2.4,4,3.07a22.75,22.75,0,0,1,5.72,6.34,14.33,14.33,0,0,1,1.73,7.05,12.69,12.69,0,0,1-3.2,9,11,11,0,0,1-8.46,3.42q-5.65,0-8.78-3.52C349.32,99.7,348.23,96.37,348.17,92.06Zm-25.46,12.6V57.23H344v4.39H327.57V78h12.07v4.33H327.57v18h17.06v4.4Zm-30.69,0V57.23h8.64c5.14,0,9,1,11.51,3.09s3.8,5.17,3.8,9.36A13,13,0,0,1,314,77,10.17,10.17,0,0,1,308.48,81l7.75,23.62H311l-7.15-22.57-3,.1-2,0h-1.89v22.44ZM296.88,78H301q4.88,0,7.33-2.07c1.62-1.38,2.45-3.44,2.45-6.2s-.81-4.84-2.42-6.21-4.07-2.06-7.36-2.06h-4.13Zm-59.24,26.7V57.23h7.56l5.7,24.65c.56,2.4,1,4.79,1.47,7.19s.81,4.81,1.16,7.26c.3-2.25.67-4.55,1.12-7s1-4.86,1.57-7.43L262,57.23h7.59v47.43h-4.32V60.59L255,104.66h-3L241.9,60.59v44.07Zm-32.22,0L215.7,57.23h6.7l10.38,47.43h-5.13l-2.75-14H213l-2.76,14ZM214,86.22h9.9l-5-24.81Zm-35.62,5.84H183c.17,3.11.87,5.4,2.1,6.89a6.63,6.63,0,0,0,5.45,2.23,6.41,6.41,0,0,0,5-2.14,8.26,8.26,0,0,0,1.93-5.71,9.8,9.8,0,0,0-1.79-5.7q-1.78-2.56-7.38-6.71t-7.41-7.09A12.86,12.86,0,0,1,179.12,67a10.4,10.4,0,0,1,3-7.61,10.06,10.06,0,0,1,7.51-3.06A10.69,10.69,0,0,1,198,59.69c2,2.26,3.1,5.41,3.23,9.48h-4.46c-.22-2.91-.89-5.11-2-6.59a5.84,5.84,0,0,0-4.88-2.21,6.21,6.21,0,0,0-4.66,1.8A6.7,6.7,0,0,0,183.45,67a7.58,7.58,0,0,0,.61,3,8.54,8.54,0,0,0,1.69,2.62,41.29,41.29,0,0,0,4.82,4.07c2.15,1.6,3.49,2.62,4.05,3.07a22.8,22.8,0,0,1,5.73,6.34,14.33,14.33,0,0,1,1.73,7.05,12.65,12.65,0,0,1-3.21,9,11,11,0,0,1-8.46,3.42q-5.64,0-8.78-3.52T178.39,92.06Zm-25.45,12.6V57.23h21.32v4.39H157.79V78h12.08v4.33H157.79v18h17.06v4.4Zm-31.55,0V57.23h8.8q8.28,0,12,5.6t3.74,18q0,12.54-3.74,18.17t-12,5.62Zm4.92-43.24V100.2l1.67.13,1,0q6.72,0,9.44-4.29t2.7-15.37q0-10.94-2.69-15.19c-1.8-2.83-4.92-4.25-9.39-4.25l-1,0Z"/></svg>